<svg width="160" height="28" viewBox="0 0 160 28" fill="none" xmlns="http://www.w3.org/2000/svg">
<path fill-rule="evenodd" clip-rule="evenodd" d="M19.2269 12.8869C18.9913 17.8486 17.1522 22.4193 13.7955 26.0969C13.7684 26.1283 13.7397 26.1588 13.7108 26.1889C13.0278 26.9047 12.1308 27.4142 11.1224 27.6139C10.8385 27.6709 10.5465 27.7029 10.2476 27.7077C10.2195 27.7083 10.1909 27.7083 10.1628 27.7083C10.1348 27.7083 10.1061 27.7083 10.0781 27.7077C8.85702 27.6739 7.81575 26.9174 7.36811 25.8508C7.35454 25.8179 7.3464 25.782 7.3464 25.7443C7.3464 25.5932 7.46886 25.471 7.61908 25.471C7.66402 25.471 7.70625 25.4813 7.74305 25.5006C7.74547 25.5021 7.74788 25.503 7.74939 25.5036C8.16204 25.7142 8.62838 25.8324 9.12247 25.8324C9.22654 25.8324 9.3297 25.827 9.43105 25.8164C10.9592 25.6629 12.1525 24.3722 12.1525 22.8024V14.8789C12.1525 14.2397 11.6343 13.7218 10.9954 13.7218C10.3562 13.7218 9.83827 14.2397 9.83827 14.8789V22.7201C9.84038 22.7475 9.84129 22.7753 9.84129 22.8033C9.84129 23.4422 9.32306 23.9604 8.68418 23.9604C8.25525 23.9604 7.90323 23.7128 7.68092 23.3795C7.25289 22.7379 6.8511 21.9394 6.52683 21.2399C6.35881 20.877 6.20045 20.5084 6.05265 20.135C5.79112 19.4723 5.58751 18.8286 5.3833 18.1487C6.26199 18.359 7.12046 18.3285 7.96627 18.1487V14.957C7.96537 14.9308 7.96536 14.9052 7.96536 14.8789C7.96536 13.206 9.32155 11.8489 10.9954 11.8489C12.668 11.8489 14.0245 13.206 14.0245 14.8789V16.5373C15.9523 15.5739 17.7148 14.3942 19.2269 12.8869V12.8869Z" fill="#0D0C27"/>
<path fill-rule="evenodd" clip-rule="evenodd" d="M18.1313 0.202953C18.1844 0.279872 18.1647 0.385747 18.0884 0.438233C18.0595 0.458141 18.026 0.467492 17.9937 0.468699C17.9874 0.468096 17.9801 0.46719 17.9738 0.467793C15.2527 0.2669 11.779 1.30636 8.58214 3.50803C3.27986 7.15939 0.693269 12.6607 2.82408 15.7546C4.95428 18.848 11.0161 18.3931 16.3184 14.7414C18.6724 13.1204 20.4913 11.1347 21.599 9.15626C21.6044 9.14871 21.6089 9.13966 21.6134 9.13062C21.6327 9.10105 21.6578 9.07391 21.6888 9.05279C21.8125 8.96743 21.9839 8.9991 22.0692 9.12277C22.119 9.19517 22.1289 9.28445 22.1042 9.36258C22.0964 9.38068 22.0885 9.39787 22.0801 9.41506C20.9598 11.8683 18.8501 14.3571 15.9993 16.3205C10.1721 20.3336 3.39599 20.6696 0.916183 17.0686C-1.56393 13.4673 1.16624 7.25682 6.99339 3.24379C10.7341 0.667782 14.866 -0.39339 18.0004 0.129957C18.0136 0.13237 18.0266 0.134179 18.0387 0.136592C18.0399 0.136592 18.0405 0.137196 18.0405 0.137196C18.0758 0.147753 18.1086 0.170074 18.1313 0.202953V0.202953Z" fill="#0D0C27"/>
<path fill-rule="evenodd" clip-rule="evenodd" d="M19.6006 4.92853V4.95387C19.597 6.46629 19.3334 7.91749 18.8492 9.26311C18.8459 9.27578 18.8414 9.28845 18.8369 9.29991C18.7934 9.39673 18.6975 9.4643 18.5856 9.4643C18.4351 9.4643 18.3129 9.34093 18.3129 9.19011C18.3129 9.18106 18.3129 9.17201 18.3138 9.16296C18.3974 8.57506 18.4396 7.9757 18.4396 7.36488C18.4396 7.35131 18.4396 7.33622 18.4384 7.32265C18.436 6.3945 18.3346 5.48928 18.1437 4.61693C18.1334 4.55178 18.1187 4.48693 18.1006 4.42419C17.985 4.00852 17.7304 3.65229 17.3905 3.40796C17.2704 3.32139 17.1392 3.24809 17.0011 3.19228C16.7842 3.10451 16.5468 3.05534 16.2979 3.05534C16.0307 3.05534 15.7773 3.11114 15.5466 3.21159C15.1484 3.40343 14.7032 3.51082 14.2326 3.51082C14.1219 3.51082 14.0136 3.50509 13.9062 3.49242C13.4884 3.44808 13.0957 3.31897 12.7464 3.12049C12.7349 3.11476 12.7223 3.10782 12.7111 3.10089C12.7111 3.10089 12.7099 3.09968 12.7087 3.09878C12.6369 3.04961 12.5898 2.96756 12.5898 2.87375C12.5898 2.72323 12.7132 2.60107 12.864 2.60107C12.8924 2.60107 12.9198 2.60559 12.9449 2.61343C12.9473 2.61343 12.9485 2.61464 12.9506 2.61585C12.9678 2.62369 12.985 2.63184 13.0022 2.63877C13.2326 2.74133 13.4884 2.79834 13.7578 2.79834C14.1358 2.79834 14.4872 2.68643 14.7819 2.49248C14.8196 2.46865 14.8549 2.44331 14.8902 2.41586C14.8914 2.41586 14.8914 2.41586 14.8926 2.41496C15.3731 2.09401 15.9495 1.9079 16.5706 1.9079C16.6804 1.9079 16.7899 1.91363 16.8961 1.9263C16.992 1.93535 17.0867 1.95013 17.179 1.96973C17.2065 1.97426 17.2339 1.9812 17.2614 1.98783C17.4291 2.02674 17.5914 2.07923 17.7464 2.14438C18.8333 2.60197 19.597 3.67642 19.6006 4.92853V4.92853Z" fill="#0D0C27"/>
<path fill-rule="evenodd" clip-rule="evenodd" d="M9.11011 8.88754C9.11011 7.85352 9.94837 7.01526 10.9827 7.01526C12.0167 7.01526 12.8553 7.85352 12.8553 8.88754C12.8553 9.92187 12.0167 10.7601 10.9827 10.7601C9.94837 10.7601 9.11011 9.92187 9.11011 8.88754Z" fill="#0D0C27"/>
<path fill-rule="evenodd" clip-rule="evenodd" d="M15.0529 5.78243C15.0529 5.95376 14.9557 6.10217 14.8143 6.17638C14.8109 6.17728 14.8085 6.17969 14.8052 6.1809C14.7868 6.18784 14.7687 6.19568 14.7503 6.20262C14.747 6.20352 14.7434 6.20473 14.7388 6.20714C14.4719 6.31211 14.1932 6.39326 13.9045 6.45027C13.7274 6.48556 13.5471 6.5109 13.3634 6.52447C13.2285 6.53714 13.0904 6.54287 12.9522 6.54287C11.8953 6.54287 10.9158 6.20714 10.1156 5.63855L10.1144 5.63734C10.0733 5.60446 10.0311 5.5734 9.98766 5.54384C9.49659 5.20147 8.89964 5.00058 8.25593 5.00058C6.74198 5.00058 5.48745 6.11002 5.26242 7.56121C5.23859 7.71414 5.22592 7.87039 5.22592 8.03026V8.04172C5.22592 8.06344 5.22381 8.08516 5.22261 8.10567C5.19516 8.53702 5.18158 8.97319 5.18158 9.41147C5.18158 10.1342 5.21808 10.8488 5.29108 11.5531C5.40751 12.6891 5.61535 13.7976 5.90643 14.8718C5.90764 14.8742 5.90854 14.8775 5.90854 14.8799C5.91669 14.9083 5.92453 14.9381 5.93388 14.9665C5.93841 14.9915 5.94052 15.0181 5.94052 15.044C5.94052 15.2883 5.74324 15.4859 5.49891 15.4859C5.31732 15.4859 5.16107 15.3776 5.0935 15.2211C5.08687 15.2063 5.08113 15.1915 5.07631 15.1755C4.267 12.9859 3.81725 10.6229 3.79674 8.15695C3.79674 8.11593 3.79553 8.07581 3.79553 8.03479V7.98109C3.81152 6.33836 4.63591 4.88867 5.89044 4.0118C6.58 3.52888 7.39956 3.21849 8.2867 3.1464C8.42123 3.13403 8.55938 3.1283 8.69753 3.1283C9.98766 3.1283 11.1611 3.62721 12.0355 4.44104C12.0835 4.49232 12.1351 4.54269 12.1888 4.59065C12.5812 4.94327 13.0677 5.19574 13.6053 5.30524C13.8016 5.34626 14.0049 5.36677 14.2137 5.36677C14.3096 5.36677 14.4043 5.36225 14.4981 5.3532C14.5039 5.3532 14.5096 5.3532 14.5141 5.35199C14.5425 5.34988 14.5711 5.34626 14.5986 5.34174C14.6031 5.34053 14.6064 5.34053 14.6109 5.34053C14.8553 5.34053 15.0529 5.5381 15.0529 5.78243V5.78243Z" fill="#0D0C27"/>
<path fill-rule="evenodd" clip-rule="evenodd" d="M19.2969 12.573C19.0616 17.5347 17.2222 22.1055 13.8658 25.7834C13.8383 25.8145 13.8097 25.8449 13.781 25.8751C13.0981 26.5909 12.2007 27.1004 11.1923 27.3004C10.9085 27.3571 10.6168 27.389 10.3175 27.3939C10.2895 27.3945 10.2608 27.3945 10.2328 27.3945C10.2047 27.3945 10.1761 27.3945 10.148 27.3939C8.92697 27.3601 7.886 26.6036 7.43806 25.537C7.42448 25.5041 7.41634 25.4682 7.41634 25.4308C7.41634 25.2794 7.53881 25.1572 7.68903 25.1572C7.73397 25.1572 7.7762 25.1674 7.813 25.1868C7.81541 25.1883 7.81783 25.1892 7.81964 25.1898C8.23198 25.4003 8.69832 25.5186 9.19242 25.5186C9.29648 25.5186 9.39964 25.5128 9.5013 25.5026C11.0294 25.349 12.2224 24.0583 12.2224 22.4886V14.5651C12.2224 13.9262 11.7042 13.408 11.0653 13.408C10.4264 13.408 9.90821 13.9262 9.90821 14.5651V22.4062C9.91063 22.4337 9.91153 22.4614 9.91153 22.4895C9.91153 23.1284 9.39331 23.6466 8.75413 23.6466C8.32519 23.6466 7.97317 23.3989 7.75116 23.0659C7.32283 22.424 6.92104 21.6256 6.59678 20.9261C6.42876 20.5632 6.2707 20.1946 6.12259 19.8212C5.86107 19.1585 5.65746 18.5148 5.45325 17.8349C6.33224 18.0451 7.19041 18.0146 8.03622 17.8349V14.6435C8.03531 14.617 8.03531 14.5913 8.03531 14.5651C8.03531 12.8922 9.3915 11.5351 11.0653 11.5351C12.7382 11.5351 14.0944 12.8922 14.0944 14.5651V16.2235C16.0222 15.2601 17.7847 14.0803 19.2969 12.573V12.573Z" fill="#0D0C27"/>
<path fill-rule="evenodd" clip-rule="evenodd" d="M19.6702 4.74481V4.77015C19.6668 6.28258 19.4029 7.73377 18.9191 9.07939C18.9154 9.09206 18.9109 9.10473 18.9064 9.11619C18.863 9.21302 18.767 9.28059 18.6551 9.28059C18.5046 9.28059 18.3824 9.15721 18.3824 9.00639C18.3824 8.99734 18.3824 8.9883 18.3836 8.97925C18.4669 8.39135 18.5091 7.79199 18.5091 7.18116C18.5091 7.16759 18.5091 7.15251 18.5079 7.13894C18.5058 6.21079 18.4042 5.30556 18.2135 4.43322C18.2033 4.36837 18.1882 4.30321 18.1701 4.24047C18.0549 3.82481 17.8003 3.46857 17.46 3.22424C17.3403 3.13767 17.2087 3.06467 17.0706 3.00857C16.8537 2.92079 16.6163 2.87162 16.3675 2.87162C16.1002 2.87162 15.8468 2.92743 15.6164 3.02787C15.2179 3.21972 14.7727 3.3271 14.3024 3.3271C14.1917 3.3271 14.0831 3.32137 13.9757 3.3087C13.558 3.26436 13.1652 3.13526 12.8159 2.93678C12.8045 2.93105 12.7921 2.92411 12.7806 2.91717C12.7806 2.91717 12.7794 2.91596 12.7782 2.91506C12.7064 2.86589 12.6597 2.78385 12.6597 2.69004C12.6597 2.53952 12.7827 2.41735 12.9336 2.41735C12.9622 2.41735 12.9894 2.42188 13.0147 2.42972C13.0168 2.42972 13.018 2.43093 13.0204 2.43213C13.0373 2.43997 13.0545 2.44812 13.0717 2.45506C13.3022 2.55762 13.558 2.61463 13.8273 2.61463C14.2053 2.61463 14.557 2.50272 14.8514 2.30876C14.8891 2.28463 14.9244 2.25959 14.96 2.23245C14.9609 2.23245 14.9609 2.23245 14.9621 2.23124C15.4429 1.91029 16.0194 1.72418 16.6405 1.72418C16.7499 1.72418 16.8594 1.72991 16.9656 1.74258C17.0615 1.75163 17.1563 1.76641 17.2489 1.78602C17.2763 1.79054 17.3035 1.79748 17.3309 1.80412C17.4989 1.84303 17.6609 1.89551 17.8163 1.96067C18.9031 2.41826 19.6668 3.4927 19.6702 4.74481V4.74481Z" fill="#0D0C27"/>
<path fill-rule="evenodd" clip-rule="evenodd" d="M9.17957 8.66037C9.17957 7.62635 10.0181 6.78809 11.0522 6.78809C12.0865 6.78809 12.9248 7.62635 12.9248 8.66037C12.9248 9.6947 12.0865 10.533 11.0522 10.533C10.0181 10.533 9.17957 9.6947 9.17957 8.66037Z" fill="#0D0C27"/>
<path fill-rule="evenodd" clip-rule="evenodd" d="M15.1224 5.55532C15.1224 5.72665 15.0256 5.87506 14.8838 5.94926C14.8805 5.95047 14.8781 5.95258 14.8748 5.95379C14.8564 5.96073 14.8383 5.96857 14.8199 5.97551C14.8166 5.97671 14.8133 5.97762 14.8087 5.98003C14.5415 6.085 14.2631 6.16614 13.9741 6.22315C13.797 6.25845 13.6166 6.28378 13.4329 6.29736C13.2984 6.31003 13.1602 6.31576 13.0221 6.31576C11.9648 6.31576 10.9854 5.98003 10.1851 5.41144L10.1839 5.41053C10.1429 5.37735 10.1007 5.34659 10.0572 5.31672C9.56647 4.97436 8.96922 4.77347 8.32551 4.77347C6.81156 4.77347 5.55703 5.8829 5.33231 7.3341C5.30817 7.48703 5.29581 7.64328 5.29581 7.80315V7.81461C5.29581 7.83633 5.29339 7.85805 5.29219 7.87856C5.26474 8.30991 5.25116 8.74608 5.25116 9.18436C5.25116 9.90709 5.28766 10.6217 5.36066 11.326C5.47709 12.462 5.68493 13.5705 5.97601 14.6447C5.97722 14.6471 5.97842 14.6504 5.97842 14.6528C5.98627 14.6812 5.99441 14.711 6.00346 14.7394C6.00799 14.7644 6.0104 14.791 6.0104 14.8169C6.0104 15.0612 5.81282 15.2588 5.56849 15.2588C5.3869 15.2588 5.23065 15.1505 5.16338 14.994C5.15645 14.9792 5.15071 14.9644 5.14619 14.9484C4.33658 12.7588 3.88683 10.3958 3.86632 7.92984C3.86632 7.88881 3.86511 7.8487 3.86511 7.80767V7.75398C3.8811 6.11125 4.70549 4.66156 5.96002 3.78469C6.64958 3.30176 7.46915 2.99137 8.35628 2.91928C8.49111 2.90691 8.62927 2.90118 8.76742 2.90118C10.0572 2.90118 11.2309 3.4001 12.1054 4.21392C12.1534 4.2652 12.2046 4.31558 12.2583 4.36354C12.6511 4.71616 13.1373 4.96863 13.6749 5.07813C13.8712 5.11915 14.0745 5.13966 14.2836 5.13966C14.3792 5.13966 14.4742 5.13514 14.5677 5.12609C14.5734 5.12609 14.5792 5.12609 14.5837 5.12488C14.6124 5.12277 14.6407 5.11915 14.6682 5.11462C14.6727 5.11342 14.676 5.11342 14.6808 5.11342C14.9252 5.11342 15.1224 5.31099 15.1224 5.55532V5.55532Z" fill="#0D0C27"/>
<path fill-rule="evenodd" clip-rule="evenodd" d="M18.1593 0.333225C18.2121 0.410143 18.1928 0.516019 18.1165 0.568504C18.0876 0.588413 18.0541 0.597763 18.0218 0.598668C18.0155 0.598367 18.0082 0.597461 18.0019 0.598064C15.2808 0.39687 11.807 1.43663 8.61023 3.6383C3.30794 7.28967 0.72135 12.7907 2.85216 15.8849C4.98236 18.9782 11.0442 18.5234 16.3465 14.8717C18.7002 13.2507 20.5194 11.265 21.627 9.28653C21.6325 9.27899 21.637 9.26994 21.6415 9.26089C21.6608 9.23133 21.6859 9.20418 21.7169 9.18306C21.8406 9.0977 22.0119 9.12907 22.0973 9.25304C22.1471 9.32544 22.157 9.41472 22.1323 9.49285C22.1244 9.51095 22.1166 9.52784 22.1082 9.54533C20.9879 11.9986 18.8782 14.4874 16.0273 16.4508C10.1999 20.4638 3.42407 20.7999 0.943962 17.1989C-1.53585 13.5976 1.19433 7.38709 7.02147 3.37407C10.7621 0.797751 14.8941 -0.26312 18.0284 0.260226C18.0417 0.26264 18.0547 0.26445 18.0667 0.266863C18.0679 0.266863 18.0682 0.267467 18.0682 0.267467C18.1038 0.278025 18.1364 0.300346 18.1593 0.333225V0.333225Z" fill="#0D0C27"/>
<path fill-rule="evenodd" clip-rule="evenodd" d="M19.6987 4.7475V4.77284C19.6954 6.28557 19.4318 7.73646 18.9476 9.08238C18.9443 9.09475 18.9395 9.10742 18.935 9.11888C18.8915 9.21571 18.7959 9.28327 18.684 9.28327C18.5332 9.28327 18.411 9.1599 18.411 9.00908C18.411 9.00003 18.411 8.99098 18.4122 8.98193C18.4955 8.39403 18.5377 7.79467 18.5377 7.18385C18.5377 7.17028 18.5377 7.1552 18.5365 7.14162C18.5344 6.21347 18.4327 5.30825 18.2421 4.4359C18.2318 4.37105 18.217 4.3059 18.1986 4.24316C18.0834 3.8275 17.8288 3.47126 17.4886 3.22693C17.3688 3.14036 17.2376 3.06736 17.0995 3.01125C16.8826 2.92348 16.6449 2.87431 16.396 2.87431C16.1291 2.87431 15.8757 2.93011 15.6449 3.03086C15.2465 3.2224 14.8012 3.32979 14.331 3.32979C14.2203 3.32979 14.1117 3.32406 14.0043 3.31139C13.5865 3.26705 13.1941 3.13794 12.8445 2.93946C12.833 2.93373 12.8207 2.9268 12.8092 2.91986C12.8092 2.91986 12.808 2.91895 12.8071 2.91775C12.735 2.86858 12.6882 2.78653 12.6882 2.69272C12.6882 2.5422 12.8116 2.42004 12.9621 2.42004C12.9908 2.42004 13.0182 2.42456 13.0433 2.43241C13.0457 2.43241 13.0466 2.43361 13.049 2.43482C13.0662 2.44266 13.0831 2.45081 13.1003 2.45774C13.331 2.5603 13.5865 2.61731 13.8559 2.61731C14.2339 2.61731 14.5856 2.5057 14.88 2.31145C14.9177 2.28762 14.953 2.26228 14.9886 2.23513C14.9898 2.23513 14.9898 2.23513 14.9907 2.23393C15.4715 1.91298 16.0479 1.72687 16.669 1.72687C16.7785 1.72687 16.888 1.7326 16.9942 1.74527C17.0901 1.75432 17.1848 1.7694 17.2774 1.78871C17.3049 1.79323 17.3323 1.80017 17.3595 1.8068C17.5275 1.84571 17.6895 1.8982 17.8448 1.96335C18.9316 2.42125 19.6954 3.49539 19.6987 4.7475V4.7475Z" fill="#0D0C27"/>
<path d="M35.3982 18.2547C34.3327 18.2547 33.3573 18.0733 32.4719 17.7106C31.6015 17.3613 30.8812 16.8575 30.3109 16.1992L32.2918 14.0228C33.1472 15.0573 34.1151 15.5745 35.1956 15.5745C36.6962 15.5745 37.4466 14.7953 37.4466 13.2369V4.51129H31.9316V1.89159H41.0932V13.0556C41.0932 14.7886 40.613 16.085 39.6525 16.9448C38.6921 17.818 37.274 18.2547 35.3982 18.2547Z" fill="#0D0C27"/>
<path d="M50.2106 16.1589C48.935 16.1589 47.787 15.9238 46.7666 15.4536C45.7611 14.9699 44.9733 14.3049 44.403 13.4586C43.8328 12.6122 43.5476 11.6517 43.5476 10.5769C43.5476 9.50216 43.8328 8.5416 44.403 7.69524C44.9733 6.84887 45.7611 6.19059 46.7666 5.72039C47.787 5.23675 48.935 4.99493 50.2106 4.99493C51.4861 4.99493 52.6266 5.23675 53.6321 5.72039C54.6375 6.19059 55.4254 6.84887 55.9956 7.69524C56.5659 8.5416 56.851 9.50216 56.851 10.5769C56.851 11.6517 56.5659 12.6122 55.9956 13.4586C55.4254 14.3049 54.6375 14.9699 53.6321 15.4536C52.6266 15.9238 51.4861 16.1589 50.2106 16.1589ZM50.2106 13.5795C51.111 13.5795 51.8463 13.3108 52.4165 12.7734C53.0018 12.2226 53.2944 11.4904 53.2944 10.5769C53.2944 9.66337 53.0018 8.93792 52.4165 8.40054C51.8463 7.84973 51.111 7.57433 50.2106 7.57433C49.3102 7.57433 48.5673 7.84973 47.9821 8.40054C47.3968 8.93792 47.1042 9.66337 47.1042 10.5769C47.1042 11.4904 47.3968 12.2226 47.9821 12.7734C48.5673 13.3108 49.3102 13.5795 50.2106 13.5795Z" fill="#0D0C27"/>
<path d="M71.3986 5.15614V14.184C71.3986 16.1723 70.8358 17.6501 69.7103 18.6174C68.5848 19.5847 66.9491 20.0683 64.8032 20.0683C63.6627 20.0683 62.5822 19.9407 61.5617 19.6854C60.5563 19.4302 59.7084 19.0607 59.0181 18.5771L60.4137 16.3201C60.924 16.6963 61.5467 16.9918 62.2821 17.2068C63.0174 17.4217 63.7602 17.5292 64.5105 17.5292C65.681 17.5292 66.5364 17.2874 67.0767 16.8037C67.6169 16.3201 67.887 15.5812 67.887 14.5871V14.2243C67.4368 14.6274 66.9041 14.9364 66.2888 15.1513C65.6735 15.3663 65.0133 15.4737 64.3079 15.4737C62.7172 15.4737 61.4567 15.0707 60.5263 14.2646C59.5959 13.4451 59.1307 12.2226 59.1307 10.5971V5.15614H62.6422V10.1336C62.6422 11.8935 63.4601 12.7734 65.0958 12.7734C65.9362 12.7734 66.6115 12.5316 67.1217 12.048C67.6319 11.5509 67.887 10.8187 67.887 9.85146V5.15614H71.3986Z" fill="#0D0C27"/>
<path d="M81.2743 1.89159H88.4324C90.1432 1.89159 91.6514 2.18715 92.9569 2.77826C94.2775 3.35594 95.298 4.17543 96.0183 5.23675C96.7536 6.29806 97.1213 7.53403 97.1213 8.94464C97.1213 10.3552 96.7536 11.5912 96.0183 12.6525C95.298 13.7138 94.2775 14.54 92.9569 15.1312C91.6514 15.7088 90.1432 15.9977 88.4324 15.9977H81.2743V1.89159ZM88.2524 13.3175C89.828 13.3175 91.0811 12.9279 92.0115 12.1487C92.9569 11.3561 93.4296 10.2881 93.4296 8.94464C93.4296 7.6012 92.9569 6.53988 92.0115 5.76069C91.0811 4.96806 89.828 4.57175 88.2524 4.57175H84.9209V13.3175H88.2524Z" fill="#0D0C27"/>
<path d="M105.724 13.6399C106.354 13.6399 106.909 13.5593 107.39 13.3981C107.885 13.2235 108.343 12.9548 108.763 12.5921L110.631 14.4057C109.491 15.5745 107.825 16.1589 105.634 16.1589C104.268 16.1589 103.06 15.9238 102.01 15.4536C100.959 14.9699 100.149 14.3049 99.5787 13.4586C99.0085 12.6122 98.7233 11.6517 98.7233 10.5769C98.7233 9.5156 99.001 8.56176 99.5562 7.71539C100.126 6.85559 100.899 6.19059 101.875 5.72039C102.865 5.23675 103.976 4.99493 105.206 4.99493C106.362 4.99493 107.412 5.2166 108.358 5.65993C109.303 6.08983 110.053 6.72125 110.609 7.55418C111.179 8.37367 111.464 9.34767 111.464 10.4762L102.505 12.0278C102.76 12.5652 103.158 12.9682 103.698 13.2369C104.253 13.5056 104.929 13.6399 105.724 13.6399ZM105.206 7.37281C104.321 7.37281 103.6 7.62807 103.045 8.13857C102.49 8.64908 102.197 9.35438 102.167 10.2545L108.065 9.22676C107.9 8.66251 107.562 8.21246 107.052 7.8766C106.542 7.54074 105.927 7.37281 105.206 7.37281Z" fill="#0D0C27"/>
<path d="M121.185 4.99493C122.686 4.99493 123.894 5.39796 124.809 6.20402C125.74 7.01009 126.205 8.20574 126.205 9.791V15.9977H122.693V10.2746C122.693 9.41484 122.483 8.77671 122.063 8.36024C121.643 7.93034 121.035 7.71539 120.24 7.71539C119.354 7.71539 118.649 7.96393 118.124 8.461C117.599 8.94464 117.336 9.67009 117.336 10.6374V15.9977H113.824V5.15614H117.178V6.42569C117.644 5.96892 118.221 5.61963 118.912 5.37781C119.602 5.12256 120.36 4.99493 121.185 4.99493Z" fill="#0D0C27"/>
<path d="M136.681 15.4737C136.336 15.7021 135.908 15.8768 135.398 15.9977C134.903 16.1052 134.385 16.1589 133.845 16.1589C132.389 16.1589 131.271 15.8297 130.491 15.1715C129.71 14.5132 129.32 13.5459 129.32 12.2696V2.75811H132.832V5.39796H135.826V7.81615H132.832V12.2293C132.832 12.6861 132.959 13.0421 133.215 13.2974C133.47 13.5392 133.837 13.6601 134.318 13.6601C134.858 13.6601 135.338 13.5258 135.758 13.2571L136.681 15.4737Z" fill="#0D0C27"/>
<path d="M150.581 5.15614V15.9977H147.227V14.7483C146.357 15.6887 145.096 16.1589 143.445 16.1589C142.305 16.1589 141.27 15.9305 140.339 15.4737C139.424 15.017 138.703 14.3654 138.178 13.519C137.653 12.6727 137.39 11.692 137.39 10.5769C137.39 9.46186 137.653 8.48115 138.178 7.63478C138.703 6.78842 139.424 6.13685 140.339 5.68008C141.27 5.22332 142.305 4.99493 143.445 4.99493C144.991 4.99493 146.199 5.43155 147.07 6.30478V5.15614H150.581ZM144.053 13.5795C144.939 13.5795 145.674 13.3108 146.259 12.7734C146.844 12.2226 147.137 11.4904 147.137 10.5769C147.137 9.66337 146.844 8.93792 146.259 8.40054C145.674 7.84973 144.939 7.57433 144.053 7.57433C143.153 7.57433 142.41 7.84973 141.825 8.40054C141.24 8.93792 140.947 9.66337 140.947 10.5769C140.947 11.4904 141.24 12.2226 141.825 12.7734C142.41 13.3108 143.153 13.5795 144.053 13.5795Z" fill="#0D0C27"/>
<path d="M158.177 16.1589C156.811 16.1589 155.746 15.8365 154.98 15.1916C154.215 14.5333 153.832 13.6064 153.832 12.4107V1.04523H157.344V12.2293C157.344 12.6861 157.471 13.0421 157.726 13.2974C157.997 13.5392 158.372 13.6601 158.852 13.6601C159.032 13.6601 159.212 13.6399 159.392 13.5996C159.587 13.5593 159.737 13.5123 159.842 13.4586L160 15.8969C159.415 16.0716 158.807 16.1589 158.177 16.1589Z" fill="#0D0C27"/>
<path d="M129.486 20.212V25.2648H126.9V23.1932H121.823V25.2648H119.237V20.212H121.823V22.2043H126.9V20.212H129.486Z" fill="#0D0C27"/>
<path d="M139.25 25.2648L137.095 23.8573H134.716V25.2648H132.13V20.212H136.967C137.957 20.212 138.814 20.2866 139.538 20.4358C140.272 20.585 140.836 20.7967 141.23 21.071C141.624 21.3453 141.82 21.6701 141.82 22.0455C141.82 22.4208 141.618 22.7457 141.214 23.02C140.82 23.2894 140.256 23.4964 139.522 23.6407L142.028 25.2648H139.25ZM139.202 22.0455C139.202 21.7616 139 21.545 138.596 21.3958C138.191 21.2419 137.601 21.1649 136.824 21.1649H134.716V22.9261H136.824C137.601 22.9261 138.191 22.8491 138.596 22.6951C139 22.5411 139.202 22.3246 139.202 22.0455Z" fill="#0D0C27"/>
<path d="M147.701 21.1504V24.3265H149.633V25.2648H143.167V24.3265H145.115V21.1504H143.167V20.212H149.633V21.1504H147.701Z" fill="#0D0C27"/>
<path d="M155.259 25.3515C154.375 25.3515 153.518 25.2985 152.688 25.1927C151.869 25.082 151.209 24.94 150.709 24.7668L151.587 23.8861C152.066 24.0449 152.635 24.1725 153.295 24.2687C153.955 24.365 154.615 24.4131 155.274 24.4131C156.009 24.4131 156.552 24.365 156.903 24.2687C157.254 24.1677 157.43 24.0353 157.43 23.8717C157.43 23.7514 157.323 23.6528 157.11 23.5758C156.908 23.494 156.642 23.429 156.312 23.3809C155.993 23.3327 155.557 23.2798 155.003 23.2221C154.152 23.1306 153.455 23.0392 152.912 22.9478C152.369 22.8563 151.901 22.7096 151.507 22.5075C151.124 22.3053 150.932 22.0359 150.932 21.699C150.932 21.4055 151.108 21.1408 151.459 20.905C151.81 20.6644 152.337 20.4743 153.039 20.3348C153.753 20.1952 154.62 20.1254 155.642 20.1254C156.355 20.1254 157.052 20.1639 157.733 20.2409C158.414 20.3179 159.01 20.4286 159.521 20.573L158.723 21.4608C157.69 21.1961 156.658 21.0638 155.626 21.0638C154.902 21.0638 154.365 21.1167 154.013 21.2226C153.673 21.3285 153.502 21.468 153.502 21.6413C153.502 21.8145 153.699 21.9444 154.093 22.0311C154.498 22.1129 155.11 22.1947 155.929 22.2765C156.78 22.3679 157.478 22.4593 158.02 22.5508C158.563 22.6422 159.026 22.7866 159.409 22.9839C159.803 23.1812 160 23.4482 160 23.7851C160 24.0738 159.819 24.3385 159.457 24.5791C159.106 24.8149 158.574 25.0026 157.861 25.1421C157.148 25.2817 156.28 25.3515 155.259 25.3515Z" fill="#0D0C27"/>
</svg>
