<svg width="66" height="28" viewBox="0 0 66 28" fill="none" xmlns="http://www.w3.org/2000/svg">
<path d="M8.82214 8.12463V10.4376H2.86566V14.1016H7.43025V16.3736H2.86566V22.412H0V8.12463H8.82214Z" fill="#0D0C27"/>
<path d="M21.3957 16.4965C21.3957 16.9058 21.3684 17.2743 21.3138 17.6018H13.0239C13.0921 18.4205 13.3787 19.0619 13.8836 19.5259C14.3885 19.9898 15.0094 20.2218 15.7463 20.2218C16.8107 20.2218 17.568 19.7647 18.0183 18.8504H21.1091C20.7816 19.9421 20.1539 20.8427 19.226 21.5523C18.2981 22.2482 17.1586 22.5962 15.8077 22.5962C14.716 22.5962 13.7335 22.3574 12.8601 21.8798C12.0004 21.3885 11.325 20.6994 10.8337 19.8124C10.3561 18.9254 10.1173 17.902 10.1173 16.7421C10.1173 15.5685 10.3561 14.5383 10.8337 13.6513C11.3113 12.7643 11.98 12.082 12.8397 11.6044C13.6994 11.1268 14.6887 10.8879 15.8077 10.8879C16.8857 10.8879 17.8477 11.1199 18.6938 11.5839C19.5535 12.0479 20.2153 12.7097 20.6793 13.5694C21.1569 14.4154 21.3957 15.3911 21.3957 16.4965ZM18.4277 15.6777C18.4141 14.9408 18.148 14.354 17.6294 13.9174C17.1109 13.467 16.4763 13.2419 15.7258 13.2419C15.0162 13.2419 14.4158 13.4602 13.9245 13.8969C13.4469 14.3199 13.1535 14.9135 13.0444 15.6777H18.4277Z" fill="#0D0C27"/>
<path d="M27.9292 10.8879C28.7752 10.8879 29.5189 11.0585 30.1603 11.3997C30.8016 11.7272 31.3065 12.157 31.675 12.6892V11.0722H34.5611V22.4939C34.5611 23.5446 34.3496 24.4794 33.9266 25.2981C33.5036 26.1305 32.869 26.7855 32.023 27.2632C31.1769 27.7544 30.1535 28 28.9526 28C27.3424 28 26.0187 27.6248 24.9816 26.8742C23.9582 26.1237 23.3782 25.1003 23.2418 23.8039H26.0869C26.2371 24.3224 26.5577 24.7318 27.049 25.032C27.5539 25.3459 28.1611 25.5028 28.8707 25.5028C29.7031 25.5028 30.3786 25.2504 30.8972 24.7455C31.4157 24.2542 31.675 23.5037 31.675 22.4939V20.7335C31.3065 21.2657 30.7948 21.7092 30.1398 22.064C29.4984 22.4188 28.7616 22.5962 27.9292 22.5962C26.9739 22.5962 26.1006 22.3506 25.3091 21.8593C24.5177 21.3681 23.8899 20.679 23.426 19.792C22.9757 18.8913 22.7505 17.8611 22.7505 16.7011C22.7505 15.5549 22.9757 14.5383 23.426 13.6513C23.8899 12.7643 24.5108 12.082 25.2887 11.6044C26.0801 11.1268 26.9603 10.8879 27.9292 10.8879ZM31.675 16.7421C31.675 16.0461 31.5385 15.4525 31.2656 14.9613C30.9927 14.4564 30.6242 14.0743 30.1603 13.815C29.6963 13.5421 29.1982 13.4056 28.666 13.4056C28.1338 13.4056 27.6426 13.5353 27.1923 13.7945C26.742 14.0538 26.3735 14.4359 26.0869 14.9408C25.814 15.4321 25.6776 16.0188 25.6776 16.7011C25.6776 17.3834 25.814 17.9839 26.0869 18.5024C26.3735 19.0073 26.742 19.3962 27.1923 19.6692C27.6562 19.9421 28.1475 20.0785 28.666 20.0785C29.1982 20.0785 29.6963 19.9489 30.1603 19.6896C30.6242 19.4167 30.9927 19.0346 31.2656 18.5434C31.5385 18.0385 31.675 17.438 31.675 16.7421Z" fill="#0D0C27"/>
<path d="M61.1974 10.9084C62.5893 10.9084 63.7082 11.3383 64.5543 12.198C65.414 13.044 65.8438 14.2312 65.8438 15.7596V22.412H62.9782V16.1485C62.9782 15.2615 62.753 14.586 62.3027 14.1221C61.8524 13.6444 61.2383 13.4056 60.4605 13.4056C59.6827 13.4056 59.0618 13.6444 58.5978 14.1221C58.1475 14.586 57.9223 15.2615 57.9223 16.1485V22.412H55.0567V16.1485C55.0567 15.2615 54.8315 14.586 54.3812 14.1221C53.9309 13.6444 53.3168 13.4056 52.539 13.4056C51.7475 13.4056 51.1198 13.6444 50.6558 14.1221C50.2055 14.586 49.9804 15.2615 49.9804 16.1485V22.412H47.1147V11.0722H49.9804V12.4436C50.3488 11.966 50.8196 11.5907 51.3927 11.3178C51.9795 11.0449 52.6209 10.9084 53.3168 10.9084C54.2038 10.9084 54.9953 11.0995 55.6912 11.4816C56.3872 11.85 56.9262 12.3822 57.3083 13.0781C57.6767 12.4231 58.2089 11.8978 58.9048 11.502C59.6144 11.1063 60.3786 10.9084 61.1974 10.9084Z" fill="#0D0C27"/>
<path fill-rule="evenodd" clip-rule="evenodd" d="M42.2287 2.30932C42.1502 2.33927 42.0456 2.40602 41.9597 2.60042L40.7026 5.44513C38.2952 10.8929 30.2055 9.50645 29.7495 3.56795C29.7014 2.94176 30.1701 2.39514 30.7963 2.34706C31.4225 2.29898 31.9691 2.76763 32.0171 3.39383C32.2921 6.975 37.1706 7.81108 38.6223 4.52585L39.8794 1.68114C41.2608 -1.44488 45.9716 0.156232 45.1621 3.47656L40.6562 21.9577C40.5074 22.5679 39.8922 22.942 39.282 22.7932C38.6719 22.6444 38.2978 22.0292 38.4466 21.419L42.9525 2.93783C43.0028 2.73135 42.9606 2.61472 42.9166 2.54311C42.8617 2.45396 42.7571 2.36465 42.6105 2.31483C42.4639 2.26501 42.3265 2.27204 42.2287 2.30932Z" fill="#0D0C27"/>
</svg>
